<svg width="24" height="24" viewBox="0 0 24 24" fill="none" xmlns="http://www.w3.org/2000/svg">
    <path d="M2 12C2 6.48 6.48 2 12 2C17.52 2 22 6.48 22 12C22 17.52 17.52 22 12 22C6.48 22 2 17.52 2 12ZM4 12C4 16.42 7.58 20 12 20C16.42 20 20 16.42 20 12C20 7.58 16.42 4 12 4C7.58 4 4 7.58 4 12Z" fill="currentColor"/>
    <path d="M8 10.5C8.82843 10.5 9.5 9.82843 9.5 9C9.5 8.17157 8.82843 7.5 8 7.5C7.17157 7.5 6.5 8.17157 6.5 9C6.5 9.82843 7.17157 10.5 8 10.5Z" fill="currentColor"/>
    <path d="M12 10.5C12.8284 10.5 13.5 9.82843 13.5 9C13.5 8.17157 12.8284 7.5 12 7.5C11.1716 7.5 10.5 8.17157 10.5 9C10.5 9.82843 11.1716 10.5 12 10.5Z" fill="currentColor"/>
    <path d="M16 10.5C16.8284 10.5 17.5 9.82843 17.5 9C17.5 8.17157 16.8284 7.5 16 7.5C15.1716 7.5 14.5 8.17157 14.5 9C14.5 9.82843 15.1716 10.5 16 10.5Z" fill="currentColor"/>
</svg>
